<svg xmlns="http://www.w3.org/2000/svg" xmlns:xlink="http://www.w3.org/1999/xlink" version="1.1" xml:space="preserve" viewBox="41.5 16.07 418.95 468.6">
<desc>Created with Fabric.js 5.3.0</desc>
<defs>
</defs>
<g transform="matrix(1 0 0 1 250.9717427042 250.3742016972)" id="Bk-k7eouU4jxt7k4vbZod">
<linearGradient id="SVGID_164" gradientUnits="userSpaceOnUse" gradientTransform="matrix(1 0 0 1 -209.4754686971 -234.2996493974)" x1="0" y1="234.29964939737314" x2="418.9509373942052" y2="234.29964939737314">
<stop offset="0%" style="stop-color:#176CB2;stop-opacity: 1"/>
<stop offset="50%" style="stop-color:#176CB2;stop-opacity: 1"/>
<stop offset="100%" style="stop-color:#33A3DC;stop-opacity: 1"/>
</linearGradient>
<path style="stroke: rgb(0,0,0); stroke-width: 0; stroke-dasharray: none; stroke-linecap: butt; stroke-dashoffset: 0; stroke-linejoin: miter; stroke-miterlimit: 4; fill: url(#SVGID_164); fill-rule: nonzero; opacity: 1;" transform=" translate(0, 0)" d="M 24.5956 -227.69521 C 9.40102 -236.50113 -9.3445 -236.50113 -24.539080000000002 -227.69521 L -188.09765000000002 -132.9059 L -188.09765000000002 -132.9059 C -201.32965000000002 -125.23738 -209.47546000000003 -111.1016 -209.47546000000003 -95.80808 L -209.47546000000003 94.12686999999998 L -209.47546000000003 94.12686999999998 C -209.47546000000003 110.00856999999998 -201.01335000000003 124.68708999999998 -187.26958000000002 132.64556 L -21.391830000000027 228.6988 L -21.391830000000027 228.6988 C -8.726030000000026 236.03307 6.8618799999999744 236.17291 19.65722999999997 229.06707 L 68.11424999999997 202.15668 L 68.11424999999997 202.15668 C 72.33868999999997 199.81065999999998 75.41369999999998 195.83202 76.61907999999997 191.15261999999998 C 77.82445999999997 186.47322 77.05431999999996 181.5041 74.48902999999997 177.4091 L 73.36775999999998 175.61919 L 73.36775999999998 175.61919 C 68.47027999999997 167.80126 58.270959999999974 165.24963 50.26909999999998 169.84045 C 36.20814999999998 177.90749 7.660159999999983 194.28601 7.660159999999983 194.28601 C 4.977129999999983 195.87617 2.4603899999999834 197.53992 -0.6563600000000172 197.42542 C -3.3028800000000174 197.32819 -5.530190000000017 196.6887 -7.8254100000000175 195.36753000000002 L -162.98257 106.05755000000002 L -166.39169 104.09522000000003 L -166.39169 104.09522000000003 C -170.36975 101.80541000000002 -172.82163 97.56502000000003 -172.82163 92.97502000000003 L -172.82163 -95.98049999999998 L -172.82163 -95.98049999999998 C -172.82163 -98.85452999999998 -171.28179 -101.50824999999998 -168.78658 -102.93441999999997 C -123.78348999999999 -128.65643999999998 -88.71850999999998 -148.58586999999997 -32.49504999999999 -181.02230999999998 C -24.060929999999992 -185.88813 -14.113939999999992 -191.63545999999997 -5.053199999999993 -196.85007 L -5.053199999999993 -196.85007 C -1.9106999999999932 -198.65863 1.9597300000000066 -198.64566 5.090040000000007 -196.81606 L 168.06583 -101.56024 L 168.06583 -101.56024 C 170.51512 -100.12867999999999 172.02069 -97.50483 172.02069 -94.66785999999999 L 172.02069 92.78085000000002 L 172.02069 92.78085000000002 C 172.02069 96.75932000000002 169.8884 100.43260000000001 166.43364 102.40562000000001 L 135.91042 119.83748000000001 L 135.91042 119.83748000000001 C 126.92175999999999 124.97092 123.65881999999999 136.33072 128.55307 145.45182 C 128.58852 145.51789 128.66049999999998 145.65202 128.66049999999998 145.65202 C 132.07577999999998 152.0426 140.77215999999999 154.59546 148.01772 154.52133 C 150.50585 154.49587 175.72196 138.82750000000001 188.95337 130.42108000000002 L 188.95337 130.42108000000002 C 201.46146000000002 122.47422000000002 209.05083000000002 108.69512000000002 209.08194 93.87608000000002 L 209.47538 -93.54590999999998 L 209.47538 -93.54590999999998 C 209.51041 -110.23420999999998 200.63569 -125.67232999999999 186.1969 -134.04022999999998 z" stroke-linecap="round"/>
</g>
<g transform="matrix(1 0 0 1 250.0011799232 250.7201132355)" id="pk8b1vLt2ZrsU58OCi-yH">
<linearGradient id="SVGID_125" gradientUnits="userSpaceOnUse" gradientTransform="matrix(1 0 0 1 0 0)" x1="0" y1="145.02334534511618" x2="213.58836121802094" y2="145.02334534511618">
<stop offset="0%" style="stop-color:#166AB1;stop-opacity: 1"/>
<stop offset="50%" style="stop-color:#2384C4;stop-opacity: 1"/>
<stop offset="100%" style="stop-color:#35A6DE;stop-opacity: 1"/>
</linearGradient>
<path style="stroke: rgb(0,0,0); stroke-width: 0; stroke-dasharray: none; stroke-linecap: butt; stroke-dashoffset: 0; stroke-linejoin: miter; stroke-miterlimit: 4; fill: url(#SVGID_125); fill-rule: nonzero; opacity: 1;" transform=" translate(-106.794180609, -145.0233453451)" d="M 168.49632 53.04341 C 153.35609 35.48373 125.73334 24.816100000000002 105.50468000000001 24.770880000000002 C 91.20145000000001 24.7389 63.735490000000006 33.34481 48.539660000000005 49.53522 C 32.58693 66.53208000000001 32.09398 76.83518000000001 26.797850000000004 91.50739 C 25.347690000000004 95.52485 21.545260000000006 98.21104 17.274150000000006 98.2353 L 11.567530000000005 98.2353 C 8.649900000000006 98.2353 5.874450000000005 96.97518 3.9541100000000053 94.77861999999999 C 2.0337700000000054 92.58205999999998 1.1557000000000053 89.66314999999999 1.5454600000000052 86.77166999999999 C 1.7067600000000052 85.57499999999999 2.025390000000005 83.23299999999999 2.046730000000005 83.14711999999999 C 7.108060000000005 62.77682999999999 11.047340000000005 50.952089999999984 33.05659000000001 28.659559999999985 C 55.06584000000001 6.3670299999999855 86.55747000000001 -0.0011400000000136856 98.23551 -1.4210854715202004e-14 C 98.23551 -1.4210854715202004e-14 106.85855000000001 -1.4210854715202004e-14 111.10572 -1.4210854715202004e-14 C 122.73723000000001 -0.00009000000001421086 138.69682 3.8384499999999857 151.75103000000001 9.830689999999986 C 166.39415000000002 16.552279999999985 177.55728000000002 25.544549999999987 178.31198 26.227349999999987 C 200.36107 46.175679999999986 213.82048 73.03735999999998 213.58533 103.27872999999998 C 213.58533 103.27872999999998 213.1458 159.86516999999998 212.92931 187.73611 C 212.81689999999998 202.20884999999998 208.25054999999998 214.53419 202.4628 226.06251 C 196.50716 237.92523 189.17817 248.924 178.31197999999998 259.10867 C 157.95372999999998 278.19009 136.00271999999998 290.49822 108.10391999999997 290.034 C 62.196889999999975 289.30998 21.996829999999974 262.37189 5.566449999999975 219.49973 C 0.4999299999999751 206.27955 -0.012070000000025338 194.27441 0.0002099999999751745 180.11663 C 0.0002099999999751745 180.11663 0.0002099999999751745 158.53673999999998 0.0002099999999751745 147.90784 C 0.0002099999999751745 143.81051 1.6358999999999753 139.88272 4.544129999999975 136.99649 C 7.452359999999976 134.11025999999998 11.392459999999975 132.50445 15.489669999999975 132.53556 L 186.52889999999996 133.83437 L 186.52889999999996 95.46434 C 186.52889999999996 95.46434 183.81218999999996 70.80681000000001 168.49629999999996 53.04341000000001 z M 25.98416 184.51471 C 26.813109999999998 227.96576000000002 61.43418 263.20471 104.86377 264.80208 L 106.6721 264.84065 C 150.52353 262.19527 184.93768 226.22072999999997 185.63719 182.29514999999998 L 185.63719 157.98313 L 26.453519999999997 157.98313 z" stroke-linecap="round"/>
</g>
<g transform="matrix(1 0 0 1 249.7368444511 312.2989523553)" id="uOSa0552ww8wEd4bz6mEz">
<linearGradient id="SVGID_210" gradientUnits="userSpaceOnUse" gradientTransform="matrix(1 0 0 1 0 -0.0000023149)" x1="0" y1="28.455015000000003" x2="31.596559999999975" y2="28.455015000000003">
<stop offset="0%" style="stop-color:#176CB2;stop-opacity: 1"/>
<stop offset="49.20877462609858%" style="stop-color:#176CB2;stop-opacity: 1"/>
<stop offset="100%" style="stop-color:#2B93D0;stop-opacity: 1"/>
</linearGradient>
<path style="stroke: none; stroke-width: 1; stroke-dasharray: none; stroke-linecap: butt; stroke-dashoffset: 0; stroke-linejoin: miter; stroke-miterlimit: 4; fill: url(#SVGID_210); fill-rule: nonzero; opacity: 1;" transform=" translate(-15.54828, -28.4550126851)" d="M 15.54828 0 C 24.13093 0 31.09656 6.96563 31.09656 15.54828 C 31.09656 21.42933 27.825960000000002 26.55113 23.0056 29.19285 L 23.80299 31.634430000000002 L 30.188670000000002 51.187110000000004 C 30.62302 52.51708000000001 30.393860000000004 53.974650000000004 29.57234 55.10717 C 28.75082 56.23969 27.436420000000002 56.910030000000006 26.03732 56.910030000000006 L 5.1858400000000024 56.910030000000006 C 3.757310000000002 56.910030000000006 2.4152700000000022 56.225590000000004 1.5764800000000023 55.069250000000004 C 0.7376900000000023 53.91292000000001 0.5037000000000023 52.4247 0.9471900000000023 51.06676 L 7.293560000000003 31.634430000000002 L 8.090950000000003 29.19285 C 3.270590000000003 26.55113 3.552713678800501e-15 21.42933 3.552713678800501e-15 15.54828 C 3.552713678800501e-15 6.965630000000001 6.9656300000000035 0 15.548280000000004 0 z" stroke-linecap="round"/>
</g>
</svg>